<?xml version="1.0" encoding="UTF-8" standalone="no"?>
<svg
   height="24px"
   viewBox="0 -960 960 960"
   width="24px"
   fill="#1f1f1f"
   version="1.1"
   id="svg1"
   sodipodi:docname="heart.svg"
   inkscape:version="1.4.2 (f4327f4, 2025-05-13)"
   xmlns:inkscape="http://www.inkscape.org/namespaces/inkscape"
   xmlns:sodipodi="http://sodipodi.sourceforge.net/DTD/sodipodi-0.dtd"
   xmlns="http://www.w3.org/2000/svg"
   xmlns:svg="http://www.w3.org/2000/svg">
  <defs
     id="defs1" />
  <sodipodi:namedview
     id="namedview1"
     pagecolor="#ffffff"
     bordercolor="#666666"
     borderopacity="1.0"
     inkscape:showpageshadow="2"
     inkscape:pageopacity="0.0"
     inkscape:pagecheckerboard="0"
     inkscape:deskcolor="#d1d1d1"
     inkscape:zoom="31.125"
     inkscape:cx="11.983936"
     inkscape:cy="12"
     inkscape:window-width="1920"
     inkscape:window-height="986"
     inkscape:window-x="-11"
     inkscape:window-y="-11"
     inkscape:window-maximized="1"
     inkscape:current-layer="svg1" />
  <path
     d="m 370,-540 c 14,0 25.83333,-4.83333 35.5,-14.5 9.66667,-9.66667 14.5,-21.5 14.5,-35.5 0,-14 -4.83333,-25.83333 -14.5,-35.5 -9.66667,-9.66667 -21.5,-14.5 -35.5,-14.5 -14,0 -25.83333,4.83333 -35.5,14.5 -9.66667,9.66667 -14.5,21.5 -14.5,35.5 0,14 4.83333,25.83333 14.5,35.5 9.66667,9.66667 21.5,14.5 35.5,14.5 z m 220,0 c 14,0 25.83333,-4.83333 35.5,-14.5 9.66667,-9.66667 14.5,-21.5 14.5,-35.5 0,-14 -4.83333,-25.83333 -14.5,-35.5 -9.66667,-9.66667 -21.5,-14.5 -35.5,-14.5 -14,0 -25.83333,4.83333 -35.5,14.5 -9.66667,9.66667 -14.5,21.5 -14.5,35.5 0,14 4.83333,25.83333 14.5,35.5 9.66667,9.66667 21.5,14.5 35.5,14.5 z m -110,420 -58,-50 c -67.33333,-58.66667 -123,-109.33333 -167,-152 -44,-42.66667 -79,-81 -105,-115 -26,-34 -44.16667,-65.33333 -54.5,-94 -10.333333,-28.66667 -15.5,-58.33333 -15.5,-89 0,-62.66667 21,-115 63,-157 42,-42 94.33333,-63 157,-63 34.66667,0 67.66667,7.33333 99,22 31.33333,14.66667 58.33333,35.33333 81,62 22.66667,-26.66667 49.66667,-47.33333 81,-62 31.33333,-14.66667 64.33333,-22 99,-22 62.66667,0 115,21 157,63 42,42 63,94.33333 63,157 0,30.66667 -5.16667,60.33333 -15.5,89 -10.33333,28.66667 -28.5,60 -54.5,94 -26,34 -61,72.33333 -105,115 -44,42.66667 -99.66667,93.33333 -167,152 z m 0,-108 c 64,-55.33333 116.66667,-102.33333 158,-141 41.33333,-38.66667 74,-72.83333 98,-102.5 24,-29.66667 40.66667,-56 50,-79 9.33333,-23 14,-46.16667 14,-69.5 0,-40 -13.33333,-73.33333 -40,-100 -26.66667,-26.66667 -60,-40 -100,-40 -31.33333,0 -60.33333,8.83333 -87,26.5 -26.66667,17.66667 -45,40.16667 -55,67.5 h -76 c -10,-27.33333 -28.33333,-49.83333 -55,-67.5 -26.66667,-17.66667 -55.66667,-26.5 -87,-26.5 -40,0 -73.33333,13.33333 -100,40 -26.66667,26.66667 -40,60 -40,100 0,23.33333 4.66667,46.5 14,69.5 9.33333,23 26,49.33333 50,79 24,29.66667 56.66667,63.83333 98,102.5 41.33333,38.66667 94,85.66667 158,141 z"
     id="path1"
     sodipodi:nodetypes="ssssssssssssssssssccssssssscssssssscccsssssssccsssssssc" />
  <path
     d="m 480,-349.7992 c 26,0 51,-5.83333 75,-17.5 24,-11.66667 46.33333,-29.16667 67,-52.5 l -44,-40 c -14.66667,16 -30.33333,28.16667 -47,36.5 -16.66667,8.33333 -33.66667,12.5 -51,12.5 -17.33333,0 -34.33333,-4.16667 -51,-12.5 -16.66667,-8.33333 -32.33333,-20.5 -47,-36.5 l -44,40 c 21.33333,23.33333 43.83333,40.83333 67.5,52.5 23.66667,11.66667 48.5,17.5 74.5,17.5 z"
     id="path1-9" />
</svg>
