<?xml version="1.0" encoding="UTF-8" standalone="no"?>
<!-- Created with Inkscape (http://www.inkscape.org/) -->

<svg
   width="93.286308mm"
   height="75.245636mm"
   viewBox="0 0 93.286308 75.245636"
   version="1.1"
   id="svg1"
   xml:space="preserve"
   xmlns="http://www.w3.org/2000/svg"
   xmlns:svg="http://www.w3.org/2000/svg"><defs
     id="defs1" /><g
     id="layer1"
     transform="translate(-38.904203,-25.598697)"><g
       id="g2"
       transform="translate(-2.626567)"><path
         style="fill:none;stroke:#40497e;stroke-width:3.41135px;stroke-linecap:butt;stroke-linejoin:miter;stroke-opacity:1"
         d="m 41.580204,52.003067 h 76.845686 c 0,0 14.68417,-0.998972 14.68417,11.213669 0,12.412861 -14.68417,11.213669 -14.68417,11.213669 H 41.532112"
         id="path1-2" /><text
         xml:space="preserve"
         style="font-size:16.9059px;line-height:1.25;font-family:'Comic Sans MS';-inkscape-font-specification:'Comic Sans MS, Normal';text-align:center;letter-spacing:0px;word-spacing:0px;text-anchor:middle;stroke-width:1.268;stroke-dasharray:none"
         x="85.342331"
         y="69.224136"
         id="text1-7"><tspan
           id="tspan1-9"
           style="font-style:normal;font-variant:normal;font-weight:bold;font-stretch:normal;font-size:16.9059px;font-family:Bahnschrift;-inkscape-font-specification:'Bahnschrift Bold';fill:#40497e;fill-opacity:1;stroke-width:1.268;stroke-dasharray:none"
           x="85.342331"
           y="69.224136">Book Club</tspan></text></g><g
       id="g3"><path
         style="fill:none;stroke:#40497e;stroke-width:3.41672;stroke-linecap:butt;stroke-linejoin:miter;stroke-dasharray:none;stroke-opacity:1"
         d="M 132.14242,27.329203 H 55.296731 c 0,0 -14.684168,-0.998972 -14.684168,11.213669 0,12.41286 14.684168,11.213668 14.684168,11.213668 h 76.893779"
         id="path1" /><text
         xml:space="preserve"
         style="font-size:16.9059px;line-height:1.25;font-family:'Comic Sans MS';-inkscape-font-specification:'Comic Sans MS, Normal';text-align:center;letter-spacing:0px;word-spacing:0px;text-anchor:middle;stroke-width:1.268;stroke-dasharray:none"
         x="81.63504"
         y="43.617962"
         id="text1"><tspan
           id="tspan1"
           style="font-style:normal;font-variant:normal;font-weight:bold;font-stretch:normal;font-size:16.9059px;font-family:Bahnschrift;-inkscape-font-specification:'Bahnschrift Bold';fill:#40497e;fill-opacity:1;stroke-width:1.268;stroke-dasharray:none"
           x="81.63504"
           y="43.617962">Sid City</tspan></text><path
         style="fill:none;fill-opacity:1;stroke:#40497e;stroke-width:3.41672;stroke-linecap:butt;stroke-linejoin:miter;stroke-dasharray:none;stroke-opacity:1"
         d="m 114.27567,27.329203 v 12.55742 l 6.87045,-3.968761 6.7486,3.898416 V 27.133999"
         id="path2" /></g><g
       id="g1"
       transform="translate(-1.257021)"><path
         style="fill:none;stroke:#40497e;stroke-width:3.41135px;stroke-linecap:butt;stroke-linejoin:miter;stroke-opacity:1"
         d="M 133.39809,76.676919 H 56.552409 c 0,0 -14.684169,-0.998972 -14.684169,11.213664 0,12.412867 14.684169,11.21367 14.684169,11.21367 h 76.893781"
         id="path1-24" /><path
         d="m 62.271486,95.042583 c 4.919048,-1.69682 13.249145,-3.55684 21.205595,-4.73495 l 4.963272,-0.73492 2.382422,1.05106 c 1.310345,0.57813 3.508523,1.90146 4.88501,2.94089 1.376359,1.03946 2.671877,1.88988 2.878685,1.88988 0.569884,0 0.438372,-1.14312 -0.428057,-3.73444 -0.431925,-1.28961 -0.783912,-2.47121 -0.783912,-2.62576 0,-0.32298 5.601879,-0.75078 11.117629,-0.84902 4.04707,-0.0722 6.0378,-0.38912 5.3012,-0.844384 -1.12558,-0.695722 -12.71484,-2.667029 -15.679141,-2.667029 h -1.64802 l 0.260444,-2.814515 c 0.199846,-2.151426 0.146984,-2.775938 -0.229501,-2.650718 -0.609852,0.203456 -1.01728,1.599386 -1.071432,3.678481 l -0.03868,1.588221 -4.861931,0.101857 c -7.249639,0.151497 -14.987032,1.297594 -14.987032,2.220019 0,0.302476 0.950236,0.511348 2.675358,0.588063 2.459653,0.109593 7.980302,1.062275 8.36117,1.443145 0.170191,0.17006 -0.71042,0.34219 -5.264073,1.02953 -6.897008,1.04088 -20.387902,4.50801 -21.372563,5.49266 -0.602116,0.60173 -0.368748,0.56511 2.33562,-0.36772 z m 33.986069,-2.33391 c -0.723313,-0.61888 -2.117981,-1.5383 -3.099418,-2.04301 -0.981179,-0.50477 -1.864757,-1.04784 -1.963003,-1.20694 -0.103147,-0.15911 0.991494,-0.34915 2.423165,-0.42251 l 2.601995,-0.13332 0.625324,2.18384 c 0.344251,1.20114 0.703974,2.31785 0.799384,2.48163 0.293967,0.50439 -0.02579,0.30996 -1.387318,-0.85985 z m -7.646366,-4.16352 c -0.351987,-0.35379 -6.383984,-1.808283 -7.714958,-1.860514 l -1.19134,-0.04641 1.389768,-0.365912 c 0.764572,-0.201264 4.358577,-0.476407 7.987006,-0.6114 l 6.597497,-0.245488 0.205003,1.346923 c 0.11604,0.74072 0.181796,1.371641 0.152141,1.401851 -0.19082,0.20088 -7.244482,0.56318 -7.425633,0.38139 z m 8.365941,-1.137961 c 0,-0.342703 -0.11604,-0.929219 -0.260445,-1.303589 -0.237236,-0.621198 0.01006,-0.656139 2.878814,-0.400207 3.513941,0.313822 9.724761,1.313993 10.025181,1.614381 0.10314,0.107015 -0.95024,0.196494 -2.35225,0.197655 -1.40125,0.0011 -4.28986,0.117331 -6.41919,0.258381 -3.36102,0.22254 -3.871337,0.17419 -3.871337,-0.366685 z"
         style="fill:#40497e;fill-opacity:1;stroke-width:1.501;stroke-dasharray:none"
         id="path1-0" /></g></g></svg>
