<?xml version="1.0" encoding="UTF-8" standalone="no"?>
<svg
   height="24px"
   viewBox="0 -960 960 960"
   width="24px"
   fill="#1f1f1f"
   version="1.1"
   id="svg1"
   sodipodi:docname="neutral.svg"
   inkscape:version="1.4.2 (f4327f4, 2025-05-13)"
   xmlns:inkscape="http://www.inkscape.org/namespaces/inkscape"
   xmlns:sodipodi="http://sodipodi.sourceforge.net/DTD/sodipodi-0.dtd"
   xmlns="http://www.w3.org/2000/svg"
   xmlns:svg="http://www.w3.org/2000/svg">
  <defs
     id="defs1" />
  <sodipodi:namedview
     id="namedview1"
     pagecolor="#ffffff"
     bordercolor="#666666"
     borderopacity="1.0"
     inkscape:showpageshadow="2"
     inkscape:pageopacity="0.0"
     inkscape:pagecheckerboard="0"
     inkscape:deskcolor="#d1d1d1"
     inkscape:zoom="31.125"
     inkscape:cx="11.983936"
     inkscape:cy="12"
     inkscape:window-width="1920"
     inkscape:window-height="986"
     inkscape:window-x="-11"
     inkscape:window-y="-11"
     inkscape:window-maximized="1"
     inkscape:current-layer="svg1" />
  <path
     d="m 620,-520 c 16.66667,0 30.83333,-5.83333 42.5,-17.5 11.66667,-11.66667 17.5,-25.83333 17.5,-42.5 0,-16.66667 -5.83333,-30.83333 -17.5,-42.5 -11.66667,-11.66667 -25.83333,-17.5 -42.5,-17.5 -16.66667,0 -30.83333,5.83333 -42.5,17.5 -11.66667,11.66667 -17.5,25.83333 -17.5,42.5 0,16.66667 5.83333,30.83333 17.5,42.5 11.66667,11.66667 25.83333,17.5 42.5,17.5 z m -280,0 c 16.66667,0 30.83333,-5.83333 42.5,-17.5 11.66667,-11.66667 17.5,-25.83333 17.5,-42.5 0,-16.66667 -5.83333,-30.83333 -17.5,-42.5 -11.66667,-11.66667 -25.83333,-17.5 -42.5,-17.5 -16.66667,0 -30.83333,5.83333 -42.5,17.5 -11.66667,11.66667 -17.5,25.83333 -17.5,42.5 0,16.66667 5.83333,30.83333 17.5,42.5 11.66667,11.66667 25.83333,17.5 42.5,17.5 z m 20,180 h 240 v -60 H 360 Z m 120,260 c -55.33333,0 -107.33333,-10.5 -156,-31.5 -48.66667,-21 -91,-49.5 -127,-85.5 -36,-36 -64.5,-78.33333 -85.5,-127 -21,-48.66667 -31.5,-100.66667 -31.5,-156 0,-55.33333 10.5,-107.33333 31.5,-156 21,-48.66667 49.5,-91 85.5,-127 36,-36 78.33333,-64.5 127,-85.5 48.66667,-21 100.66667,-31.5 156,-31.5 55.33333,0 107.33333,10.5 156,31.5 48.66667,21 91,49.5 127,85.5 36,36 64.5,78.33333 85.5,127 21,48.66667 31.5,100.66667 31.5,156 0,55.33333 -10.5,107.33333 -31.5,156 -21,48.66667 -49.5,91 -85.5,127 -36,36 -78.33333,64.5 -127,85.5 -48.66667,21 -100.66667,31.5 -156,31.5 z m 0,-80 c 89.33333,0 165,-31 227,-93 62,-62 93,-137.66667 93,-227 0,-89.33333 -31,-165 -93,-227 -62,-62 -137.66667,-93 -227,-93 -89.33333,0 -165,31 -227,93 -62,62 -93,137.66667 -93,227 0,89.33333 31,165 93,227 62,62 137.66667,93 227,93 z"
     id="path1"
     sodipodi:nodetypes="sssssssssssssssssscccccssssssssssssssssssssssssss" />
</svg>
