<?xml version="1.0" encoding="UTF-8" standalone="no"?>
<svg
   height="24px"
   viewBox="0 -960 960 960"
   width="24px"
   fill="#1f1f1f"
   version="1.1"
   id="svg1"
   sodipodi:docname="star.svg"
   inkscape:version="1.4.2 (f4327f4, 2025-05-13)"
   xmlns:inkscape="http://www.inkscape.org/namespaces/inkscape"
   xmlns:sodipodi="http://sodipodi.sourceforge.net/DTD/sodipodi-0.dtd"
   xmlns="http://www.w3.org/2000/svg"
   xmlns:svg="http://www.w3.org/2000/svg">
  <defs
     id="defs1" />
  <sodipodi:namedview
     id="namedview1"
     pagecolor="#ffffff"
     bordercolor="#666666"
     borderopacity="1.0"
     inkscape:showpageshadow="2"
     inkscape:pageopacity="0.0"
     inkscape:pagecheckerboard="0"
     inkscape:deskcolor="#d1d1d1"
     inkscape:zoom="31.125"
     inkscape:cx="11.983936"
     inkscape:cy="12"
     inkscape:window-width="1920"
     inkscape:window-height="986"
     inkscape:window-x="-11"
     inkscape:window-y="-11"
     inkscape:window-maximized="1"
     inkscape:current-layer="svg1" />
  <path
     d="m 380,-480 c 16.66667,0 30.83333,-5.83333 42.5,-17.5 11.66667,-11.66667 17.5,-25.83333 17.5,-42.5 0,-16.66667 -5.83333,-30.83333 -17.5,-42.5 -11.66667,-11.66667 -25.83333,-17.5 -42.5,-17.5 -16.66667,0 -30.83333,5.83333 -42.5,17.5 -11.66667,11.66667 -17.5,25.83333 -17.5,42.5 0,16.66667 5.83333,30.83333 17.5,42.5 11.66667,11.66667 25.83333,17.5 42.5,17.5 z m 200,0 c 16.66667,0 30.83333,-5.83333 42.5,-17.5 11.66667,-11.66667 17.5,-25.83333 17.5,-42.5 0,-16.66667 -5.83333,-30.83333 -17.5,-42.5 -11.66667,-11.66667 -25.83333,-17.5 -42.5,-17.5 -16.66667,0 -30.83333,5.83333 -42.5,17.5 -11.66667,11.66667 -17.5,25.83333 -17.5,42.5 0,16.66667 5.83333,30.83333 17.5,42.5 11.66667,11.66667 25.83333,17.5 42.5,17.5 z M 305,-704 417,-849 c 8,-10.66667 17.5,-18.5 28.5,-23.5 11,-5 22.5,-7.5 34.5,-7.5 12,0 23.5,2.5 34.5,7.5 11,5 20.5,12.83333 28.5,23.5 l 112,145 170,57 c 17.33333,5.33333 31,15.16667 41,29.5 10,14.33333 15,30.16667 15,47.5 0,8 -1.16667,16 -3.5,24 -2.33333,8 -6.16667,15.66667 -11.5,23 l -110,156 4,164 c 0.66667,23.33333 -7,43 -23,59 -16,16 -34.66667,24 -56,24 -1.33333,0 -8.66667,-1 -22,-3 l -179,-50 -179,50 c -3.33333,1.33333 -7,2.16667 -11,2.5 -4,0.33333 -7.66667,0.5 -11,0.5 -21.33333,0 -40,-8 -56,-24 -16,-16 -23.66667,-35.66667 -23,-59 l 4,-165 -109,-155 c -5.333333,-7.33333 -9.166667,-15 -11.5,-23 -2.333333,-8 -3.5,-16 -3.5,-24 0,-16.66667 4.833333,-32.16667 14.5,-46.5 9.66667,-14.33333 23.16667,-24.5 40.5,-30.5 z m 49,69 -194,64 124,179 -4,191 200,-55 200,56 -4,-192 124,-177 -194,-66 -126,-165 z m 126,335 c 26,0 51,-5.83333 75,-17.5 24,-11.66667 46.33333,-29.16667 67,-52.5 l -44,-40 c -14.66667,16 -30.33333,28.16667 -47,36.5 -16.66667,8.33333 -33.66667,12.5 -51,12.5 -17.33333,0 -34.33333,-4.16667 -51,-12.5 -16.66667,-8.33333 -32.33333,-20.5 -47,-36.5 l -44,40 c 21.33333,23.33333 43.83333,40.83333 67.5,52.5 23.66667,11.66667 48.5,17.5 74.5,17.5 z"
     id="path1"
     sodipodi:nodetypes="ssssssssssssssssssccssscccssscccsscccssscccsssccccccccccccc" />
</svg>
